<svg width="34" height="34" viewBox="0 0 34 34" fill="none" xmlns="http://www.w3.org/2000/svg"
    role="img" aria-hidden="true">
    <g clip-path="url(#clip0_1087_25943)">
        <path
            d="M17 0.956238C8.12813 0.956238 0.956253 8.12811 0.956253 17C0.956253 25.8719 8.12813 33.0969 17 33.0969C25.8719 33.0969 33.0969 25.8719 33.0969 17C33.0969 8.12811 25.8719 0.956238 17 0.956238ZM17 30.7062C9.45625 30.7062 3.34688 24.5437 3.34688 17C3.34688 9.45624 9.45625 3.34686 17 3.34686C24.5438 3.34686 30.7063 9.50936 30.7063 17.0531C30.7063 24.5437 24.5438 30.7062 17 30.7062Z"
            fill="white" />
        <path
            d="M19.125 14.45H14.875C14.2375 14.45 13.6531 14.9812 13.6531 15.6719V26.2969C13.6531 26.9344 14.1844 27.5187 14.875 27.5187H19.125C19.7625 27.5187 20.3469 26.9875 20.3469 26.2969V15.6719C20.3469 14.9812 19.7625 14.45 19.125 14.45ZM17.9562 25.075H16.0969V16.8406H17.9562V25.075Z"
            fill="white" />
        <path
            d="M17 6.53436C15.1937 6.53436 13.6531 8.02186 13.6531 9.88124C13.6531 11.7406 15.1406 13.2281 17 13.2281C18.8594 13.2281 20.3469 11.7406 20.3469 9.88124C20.3469 8.02186 18.8062 6.53436 17 6.53436ZM17 10.7844C16.4687 10.7844 16.0437 10.3594 16.0437 9.82811C16.0437 9.29686 16.4687 8.87186 17 8.87186C17.5312 8.87186 17.9562 9.29686 17.9562 9.82811C17.9562 10.3594 17.5312 10.7844 17 10.7844Z"
            fill="white" />
    </g>
    <defs>
        <clipPath id="clip0_1087_25943">
            <rect width="34" height="34" fill="white" />
        </clipPath>
    </defs>
</svg>
